<?xml version="1.0" encoding="UTF-8"?>
<svg width="122px" height="51px" viewBox="0 0 122 51" version="1.1" xmlns="http://www.w3.org/2000/svg" xmlns:xlink="http://www.w3.org/1999/xlink">
    <!-- Generator: Sketch 48.1 (47250) - http://www.bohemiancoding.com/sketch -->
    <title>test2</title>
    <desc>Created with Sketch.</desc>
    <defs></defs>
    <g id="Page-1" stroke="none" stroke-width="1" fill="none" fill-rule="evenodd">
        <path d="M21.1627352,30.9450413 C26.8691697,30.5340714 37.2675614,27.6059114 42.8471862,24.7804937 C42.8471862,24.4722664 42.2131379,23.9585541 41.5790897,23.7530691 C33.716891,26.1161457 24.5865959,27.9141387 19.6410193,28.1709949 C16.5975876,27.6059114 15.0758717,25.962032 15.0758717,23.1879856 C15.0758717,18.8214311 19.006971,14.7117327 26.2351214,11.423974 C30.9270786,9.31775362 36.6335131,7.87935919 39.9305641,7.87935919 C41.832709,7.87935919 42.8471862,8.39307149 42.8471862,9.36912485 C42.8471862,11.0643754 40.0573738,12.9651109 34.3509393,15.0713313 C35.7458455,15.893271 38.0284193,16.4583545 40.0573738,16.4583545 C44.8761407,16.4583545 49.6949076,13.3760808 49.6949076,10.2424358 C49.6949076,6.95467706 44.749331,5.10531279 35.9994648,5.10531279 C18.2461131,5.10531279 1,12.6568835 1,20.4139392 C1,25.8079183 10.0034855,30.5340714 21.1627352,30.9450413 Z" id="Path" stroke="#979797" fill="#FFFFFF"></path>
        <path d="M89.4353146,9.92569919 C91.2351264,9.92569919 99.0343108,0.209268967 102.133987,1.08960453 C104.633725,1.96994009 95.6346663,15.0848854 95.6346663,16.0490625 C95.6346663,16.6778736 95.4346872,17.1809225 95.1347186,17.5582091 C96.2346036,17.6001299 103.433851,13.2822936 105.633621,12.1923543 C107.333443,11.437781 109.033265,10.9347321 109.933171,10.8928113 C114.132732,10.9766528 119.732146,12.1923543 120.832031,14.1626291 C120.832031,15.7136965 120.632052,16.5521114 120.032115,17.7258921 C117.632366,21.9598869 110.533108,29.0444922 102.133987,31.6016574 C99.8342272,31.6016574 95.2347082,31.2662914 93.2349173,30.3021144 C94.4347918,29.7571448 99.9342167,26.5711684 105.933589,20.6184232 C107.233453,19.360801 110.13315,15.5460136 110.13315,14.0787876 C110.13315,13.6595802 109.633202,13.4080558 109.433223,13.3242143 C107.433432,13.6595802 104.733715,15.0429647 99.2342899,18.1870203 C96.5345722,19.7380877 91.6350846,22.2952529 89.4353146,24.7685766 C88.2354401,26.151961 86.1356597,28.583364 81.6361303,30.3859559 C78.1364963,30.3859559 73.3369982,29.6733033 72.1371237,29.0444922 C77.0366113,24.1397655 81.7604212,19.0286951 84.7358061,15.0429647 C86.8638134,12.1923543 86.8638134,12.7373239 86.8638134,12.1923543 C86.8638134,12.0665921 92.6391336,7.98512755 89.4353146,9.92569919 Z" id="Path" stroke="#979797" fill="#FFFFFF"></path>
        <path d="M59.3871769,33.6464871 C60.7959484,33.6464871 66.9006251,26.4191972 69.3268427,27.0740097 C71.2834699,27.7288222 64.2396122,37.4840008 64.2396122,38.2011765 C64.2396122,38.6688997 64.083082,39.0430783 63.8482867,39.3237122 C64.7092027,39.3548938 70.3442888,36.1431942 72.0661207,35.3324739 C73.3966272,34.771206 74.7271336,34.3970275 75.4315194,34.3658459 C78.718653,34.428209 83.1014978,35.3324739 83.9624137,36.7980068 C83.9624137,37.9517241 83.8058835,38.5753551 83.336293,39.4484384 C81.457931,42.5977749 75.9011099,47.8674567 69.3268427,49.7695312 C67.5267458,49.7695312 63.9265518,49.5200789 62.3612501,48.8029032 C63.3004311,48.3975431 67.6050108,46.0277453 72.300916,41.5999653 C73.3183621,40.6645189 75.5880496,37.8269979 75.5880496,36.7356437 C75.5880496,36.4238282 75.1967241,36.2367389 75.040194,36.1743758 C73.4748922,36.4238282 71.3617349,37.4528193 67.0571552,39.7914355 C64.9439979,40.9451528 61.1090087,42.8472273 59.3871769,44.6869387 C58.4479958,45.7159298 56.804429,47.5244597 53.2825002,48.8652663 C50.5432222,48.8652663 46.7864981,48.33518 45.8473171,47.8674567 C49.6823063,44.2192155 53.3797867,40.4174913 55.7087179,37.4528193 C57.3743787,35.3324739 57.3743787,35.7378341 57.3743787,35.3324739 C57.3743787,35.2389293 61.8949107,32.2030481 59.3871769,33.6464871 Z" id="Path" stroke="#979797" fill="#FFFFFF"></path>
        <path d="M37.5026232,32.6853983 C34.9911734,34.7903658 31.5271048,37.4215751 29.1022568,39.0704663 C22.8669332,43.2804012 18.7100509,45.2450375 15.332584,45.5256998 C14.5531685,45.4204514 14.1201599,45.1748719 14.1201599,44.6837128 C14.1201599,40.3685295 25.4649847,34.1588755 34.7313683,33.5624681 C34.4715631,32.6853983 30.5744859,31.0365071 28.2362396,30.7909276 C18.8832543,31.0014243 6.41260723,38.1583137 6.41260723,43.3856496 C6.41260723,45.8063621 9.35706557,47.5605017 13.6005496,47.6306673 C18.969856,47.2798393 26.590807,43.7715603 31.2672997,39.4914598 C29.1022568,41.7718412 27.9764345,43.6663119 27.9764345,44.9643751 C27.9764345,46.7185147 29.5352653,47.5605017 32.6529271,47.5605017 C34.3849614,47.5605017 36.8964112,47.2798393 38.2820386,46.9290114 C36.7232077,46.5781835 36.030394,45.666031 36.030394,44.3679677 C36.030394,41.9823379 39.2346575,37.8425686 43.9111502,33.913296 C43.9977519,33.4572197 39.9274712,32.6853983 37.5026232,32.6853983 Z" id="Path" stroke="#979797" fill="#FFFFFF"></path>
        <path d="M61.6864553,12.4578717 C64.3711381,11.1001925 68.1947772,9.74251318 72.9133105,9.20575626 C73.6454967,9.64779137 73.9709128,10.2476962 73.9709128,11.32121 C73.9709128,16.2467442 66.8931128,20.2882081 57.2119841,21.1091304 C56.1543818,20.9828347 55.0967795,19.8777469 55.0967795,18.8673809 C55.0967795,17.1939623 57.9441703,14.3838819 61.6864553,12.4578717 Z M84.0429304,11.1849577 C84.0429304,8.81241334 82.5884424,7.70028318 79.5083502,7.70028318 C78.9950015,7.70028318 78.4816528,7.73735418 77.9683041,7.73735418 C76.2571417,6.43986899 74.3748631,5.51309385 72.5781426,5.10531279 C69.925841,5.10531279 66.8457487,5.62430687 63.7656565,6.62522402 C55.7231934,9.1831234 50.932266,14.019596 49.8196833,17.9318807 C38.8017832,56.6752125 54.0120311,23.6408155 60.514448,23.9373836 C74.2037469,22.6769694 84.0429304,17.3758156 84.0429304,11.1849577 Z" id="Path" stroke="#979797" fill="#FFFFFF"></path>
    </g>
</svg>